<?xml version="1.0" standalone="no"?>
<!DOCTYPE svg PUBLIC "-//W3C//DTD SVG 20010904//EN"
 "http://www.w3.org/TR/2001/REC-SVG-20010904/DTD/svg10.dtd">
<svg version="1.0" xmlns="http://www.w3.org/2000/svg"
 width="216.000000pt" height="212.000000pt" viewBox="0 0 216.000000 212.000000"
 preserveAspectRatio="xMidYMid meet">

<g transform="translate(0.000000,212.000000) scale(0.100000,-0.100000)"
fill="#bc71f0" stroke="none">
<path d="M1220 2070 l0 -50 -235 0 -235 0 0 -145 0 -145 115 0 c63 0 115 -2
115 -5 0 -3 -28 -73 -61 -155 l-62 -150 -58 0 -59 0 0 -140 0 -140 685 0 c377
0 685 3 685 8 1 4 -30 105 -67 224 l-68 218 -162 0 c-130 0 -163 -3 -163 -13
0 -8 9 -40 20 -72 11 -32 20 -64 20 -72 0 -10 -47 -13 -246 -13 l-245 0 7 22
c3 12 31 82 61 155 l55 133 374 0 375 0 -3 143 -3 142 -247 3 -248 2 0 50 0
50 -175 0 -175 0 0 -50z"/>
<path d="M90 1941 l0 -160 38 -10 c20 -6 131 -33 247 -61 116 -28 218 -53 228
-56 16 -5 17 5 15 157 l-3 163 -230 57 c-126 31 -245 60 -262 63 l-33 8 0
-161z"/>
<path d="M44 1546 c-3 -7 -3 -79 -2 -161 l3 -150 285 -66 c157 -36 288 -64
293 -62 4 2 7 74 7 158 0 152 0 155 -22 160 -13 3 -144 34 -291 69 -188 44
-270 60 -273 52z"/>
<path d="M827 1063 c-4 -3 -7 -135 -7 -293 0 -372 -19 -489 -111 -673 -21 -43
-39 -80 -39 -83 0 -2 74 -4 164 -4 l164 0 20 48 c81 189 102 327 109 710 l6
302 -150 0 c-82 0 -153 -3 -156 -7z"/>
<path d="M1270 565 l0 -505 145 0 145 0 0 505 0 505 -145 0 -145 0 0 -505z"/>
<path d="M1720 540 l0 -530 220 0 220 0 0 140 0 140 -70 0 -70 0 0 390 0 390
-150 0 -150 0 0 -530z"/>
<path d="M310 996 c0 -3 -11 -65 -25 -139 -39 -212 -132 -515 -244 -794 l-21
-53 174 0 173 0 36 93 c81 212 159 499 197 727 11 69 23 135 25 148 l5 22
-160 0 c-88 0 -160 -2 -160 -4z"/>
</g>
</svg>